<?xml version="1.0" encoding="UTF-8"?>
<svg id="Camada_1" data-name="Camada 1" xmlns="http://www.w3.org/2000/svg" viewBox="0 0 1391.39 513.71">
  <defs>
    <style>
      .cls-1 {
        fill: #fff;
      }
    </style>
  </defs>
  <path class="cls-1" d="m278.83,311.95c-.61-.31-5.3-2.71-8.88-5.29h0c-1-.71-1.84-1.38-2.59-1.98-2.28-1.8-3.79-3-6.05-2.79-2.17.2-3.8.84-4.46,1.15-.66-.3-2.29-.95-4.46-1.15-2.26-.21-3.77.99-6.05,2.79-.75.59-1.59,1.26-2.59,1.97-3.58,2.57-8.27,4.98-8.88,5.29l-1.57.39,1.47.83c.06.03,5.95,3.35,8.01,5.17,2.09,1.85,3.98,3.28,7.52,3.35,3.19.06,6.48.24,6.59.24.03,0,3.32-.18,6.51-.24,3.54-.07,5.42-1.49,7.52-3.35,2.06-1.82,7.95-5.14,8.01-5.17l1.47-.83-1.57-.39Z"/>
  <path class="cls-1" d="m253.02,282.45c0,2.12-4.16,1.71-4.89,1.71-.69,0-1.74-2.15-4.35-1.71-2.09.35,2.07-3.83,4.62-3.83s4.62,1.72,4.62,3.83Z"/>
  <path class="cls-1" d="m260.69,282.45c0,2.12,4.16,1.71,4.89,1.71.69,0,1.74-2.15,4.35-1.71,2.09.35-2.07-3.83-4.62-3.83-2.55,0-4.62,1.72-4.62,3.83Z"/>
  <path class="cls-1" d="m513.71,193.9l-10.16-10.16-.58-.57-34.84-34.84-10.74,10.74,34.84,34.84-18.79,18.79-34.84-34.84-10.74,10.74,34.84,34.84-22.69,22.69-172.43-172.43,22.69-22.69,34.84,34.84,10.74-10.74-34.84-34.84,18.79-18.79,34.84,34.84,10.74-10.74-34.84-34.84-.57-.58L319.8,0l-62.95,62.95L193.9,0l-45.57,45.57,10.74,10.74,34.84-34.84,18.8,18.79-34.84,34.84,10.74,10.74,34.84-34.84,22.69,22.69L73.69,246.12l-22.69-22.69,34.84-34.84-10.74-10.74-34.84,34.84-18.79-18.79,34.84-34.84-10.73-10.74-34.84,34.84-10.74,10.74,62.96,62.95L0,319.8l10.16,10.16.57.58,34.84,34.84,10.73-10.74-34.84-34.84,18.79-18.79,34.84,34.84,10.74-10.74-34.84-34.84,22.69-22.69,172.43,172.43-22.69,22.69-34.84-34.84-10.74,10.73,34.84,34.84-18.8,18.79-34.84-34.84-10.74,10.74,34.84,34.84.58.57,10.16,10.16,62.95-62.95,62.95,62.95,10.74-10.74,34.84-34.84-10.74-10.74-34.84,34.84-18.79-18.79,34.84-34.84-10.74-10.73-34.84,34.84-22.69-22.69,172.43-172.43,22.69,22.69-34.84,34.84,10.74,10.74,34.84-34.84,18.79,18.79-34.84,34.84,10.74,10.74,45.57-45.57-62.95-62.95,62.95-62.95Zm-256.85,235.38l-172.43-172.43,172.43-172.43,172.43,172.43-172.43,172.43Z"/>
  <path class="cls-1" d="m337.79,220.73v-.38c-.02-1.91-.04-3.59-.04-5.01,0-15.48-8.07-31.24-22.15-43.24-15.18-12.93-35.98-20.09-58.51-20.15h-.35s-4.48.03-4.48.03l-2.42.09v.12c-19.89,1.36-38.18,8.39-51.72,19.92-14.07,11.99-22.15,27.75-22.15,43.24,0,1.51-.02,3.32-.04,5.4-.32,27.02-1.07,90.32,31.3,122.39,12.49,12.37,28.53,18.64,47.69,18.64.62,0,1.25,0,1.92-.02h.09c20.03.42,36.7-5.87,49.56-18.62,32.37-32.06,31.63-95.36,31.3-122.39Zm-13.84-5.4c0,1.5.02,3.28.04,5.32v.24c.08,7,.21,17.52-.45,29.56l-15.35-5.09c-1.99-2.11-7.82-7.58-15.39-8.34v-30.08l17.42-21.07c8.79,8.71,13.73,19.25,13.73,29.47Zm-134.23,5.56c.03-2.14.05-4,.05-5.56,0-10.21,4.93-20.76,13.72-29.47l17.42,21.07v30.08c-7.59.76-13.42,6.24-15.39,8.34l-15.35,5.09c-.65-12.04-.53-22.56-.44-29.56Zm107.07,112.43c-10.15,10.05-23.55,14.98-39.76,14.62h-.42s-.16,0-.16,0c-16.06.35-29.35-4.57-39.51-14.63-18.08-17.91-24.28-49.53-26.32-76.01l17.35-5.75c1.56.96,3.86,2.07,6.95,2.78,1.62.37,3.52.56,5.81.56,3.57,0,7.36-.46,10.15-.8,1.11-.14,2.06-.26,2.73-.3,1.34-.11,2.11.02,2.45.12.17.09.37.17.58.24l.26.07s.14.03.39.07l.17.02c.76.06,1.47-.13,2.04-.53,1.66-1,2.99-3.64,2.58-5.1l-.02-.07c-.25-.75-5.7-8.61-14.49-11v-33.06l-19.09-23.1c11.72-9.3,28.37-15.64,48.27-15.7h.22c19.9.06,36.56,6.41,48.29,15.71l-19.09,23.1v33.06c-8.79,2.39-14.24,10.25-14.49,11-.48,1.44.86,4.16,2.55,5.17.55.4,1.25.59,1.97.53l.22-.02c.24-.03.41-.07.41-.07l.48-.12.07-.05c.1-.04.2-.09.29-.14.35-.09,1.12-.22,2.46-.12.66.04,1.65.17,2.79.31,2.75.34,6.51.8,10.08.8,2.29,0,4.19-.18,5.81-.56,3.09-.71,5.38-1.82,6.95-2.78l17.35,5.75c-2.04,26.49-8.24,58.11-26.32,76.01Z"/>
  <path class="cls-1" d="m30.3,249.74c-4.57-4.57-11.98-4.57-16.55,0-4.57,4.57-4.57,11.98,0,16.55,4.57,4.57,11.98,4.57,16.55,0,4.57-4.57,4.57-11.98,0-16.55Zm-11.85,11.85c-1.97-1.97-1.97-5.17,0-7.15,1.97-1.97,5.17-1.97,7.15,0,1.97,1.97,1.97,5.17,0,7.15-1.97,1.97-5.17,1.97-7.15,0Z"/>
  <path class="cls-1" d="m263.97,30.3c4.57-4.57,4.57-11.98,0-16.55-4.57-4.57-11.98-4.57-16.55,0-4.57,4.57-4.57,11.98,0,16.55,4.57,4.57,11.98,4.57,16.55,0Zm-11.85-11.85c1.97-1.97,5.17-1.97,7.15,0,1.97,1.97,1.97,5.17,0,7.15-1.97,1.97-5.17,1.97-7.15,0-1.97-1.97-1.97-5.17,0-7.15Z"/>
  <path class="cls-1" d="m483.41,263.97c4.57,4.57,11.98,4.57,16.55,0,4.57-4.57,4.57-11.98,0-16.55-4.57-4.57-11.98-4.57-16.55,0s-4.57,11.98,0,16.55Zm11.85-11.85c1.97,1.97,1.97,5.17,0,7.15-1.97,1.97-5.17,1.97-7.15,0-1.97-1.97-1.97-5.17,0-7.15,1.97-1.97,5.17-1.97,7.15,0Z"/>
  <path class="cls-1" d="m249.74,483.4c-4.57,4.57-4.57,11.98,0,16.55,4.57,4.57,11.98,4.57,16.55,0,4.57-4.57,4.57-11.98,0-16.55-4.57-4.57-11.98-4.57-16.55,0Zm11.85,11.85c-1.97,1.97-5.17,1.97-7.15,0-1.97-1.97-1.97-5.17,0-7.15s5.17-1.97,7.15,0,1.97,5.17,0,7.15Z"/>
  <path class="cls-1" d="m656.39,167.68c0-17.06-10.99-24.83-21.19-24.83-5.18,0-9.76,1.46-13.61,4.35l-4.23,3.17v217.68h117.86v-36.51h-78.83v-163.86Z"/>
  <path class="cls-1" d="m824.05,206.31c-21.58,0-39.82,5.37-55.77,16.41l-8.11,5.62,17.95,30.16,9.37-6.79c9.29-6.73,20.43-10.01,34.05-10.01,15.41,0,23.38,8.33,24.29,25.44-9.28-.68-17.57-1.02-25.12-1.02-20.13,0-36.35,4.45-48.21,13.22-12.68,9.37-19.38,23.05-19.38,39.56s4.95,28.8,14.32,37.98c9.31,9.13,22.61,13.96,38.46,13.96,14.89,0,29.64-5.22,41.67-14.18.78,2.51,1.9,4.74,3.35,6.68,3.61,4.84,8.96,7.5,15.08,7.5,5.29,0,10.09-1.5,13.89-4.35l4.23-3.17v-96.97c0-18.09-5.6-33.25-16.2-43.85-10.6-10.6-25.76-16.2-43.85-16.2Zm21.85,94.96c-.49,22.49-21.31,34.46-36.38,34.46-12.26,0-18.22-5.78-18.22-17.66,0-5.4,1.93-9.26,6.08-12.17,5.13-3.6,13.29-5.5,23.6-5.5,7.91,0,16.5.3,24.92.87Z"/>
  <path class="cls-1" d="m948.61,157.39c-13.18,0-22.03,8.74-22.03,21.75s8.85,21.19,22.03,21.19,22.03-8.52,22.03-21.19-8.85-21.75-22.03-21.75Z"/>
  <rect class="cls-1" x="929.66" y="209.11" width="38.19" height="158.95"/>
  <path class="cls-1" d="m1178,206.31c-13.58,0-25.74,3.11-36.15,9.26-4.54,2.68-8.76,5.94-12.64,9.77-8.84-12.26-22.3-19.03-38.7-19.03-15.32,0-29.12,4.3-40.17,12.21-3.44-8.36-10.59-12.21-17.69-12.21-4.16,0-8.42,1.2-12.68,3.57l-5.44,3.02v155.16h38.19v-91.36c0-10.88,3.28-19.82,9.49-25.87,5.95-5.79,14.38-8.85,24.39-8.85,4.6,0,7.95,1.8,10.55,5.67,2.35,3.5,5.16,10.32,5.16,22.9v97.51h38.19v-91.36c0-21.41,12.87-34.72,33.6-34.72,4.75,0,8.18,1.81,10.82,5.7,2.36,3.48,5.17,10.28,5.17,22.87v97.51h38.19v-101.7c0-17.65-4.44-32.52-12.84-42.99-8.95-11.16-21.89-17.06-37.42-17.06Z"/>
  <path class="cls-1" d="m1375.2,222.51c-10.6-10.6-25.76-16.2-43.85-16.2-21.58,0-39.82,5.37-55.77,16.41l-8.11,5.62,17.95,30.16,9.37-6.79c9.29-6.73,20.43-10.01,34.05-10.01,15.41,0,23.38,8.33,24.29,25.44-9.28-.68-17.57-1.02-25.12-1.02-20.13,0-36.35,4.45-48.21,13.22-12.68,9.37-19.38,23.05-19.38,39.56s4.95,28.8,14.32,37.98c9.31,9.13,22.61,13.96,38.46,13.96,14.89,0,29.64-5.22,41.67-14.18.78,2.51,1.9,4.74,3.35,6.68,3.61,4.84,8.96,7.5,15.08,7.5,5.29,0,10.09-1.5,13.89-4.35l4.23-3.17v-96.97c0-18.09-5.6-33.25-16.2-43.85Zm-58.38,113.23c-12.26,0-18.22-5.78-18.22-17.66,0-5.4,1.93-9.26,6.08-12.17,5.13-3.6,13.29-5.5,23.6-5.5,7.91,0,16.5.3,24.92.87-.49,22.49-21.31,34.46-36.38,34.46Z"/>
</svg>